<svg xmlns="http://www.w3.org/2000/svg" width="61.201" height="83.259" viewBox="0 0 61.201 83.259"><defs><style>.a{fill:#fab000;}.a,.b,.c,.d{stroke:#000;stroke-linejoin:round;}.a,.d{fill-rule:evenodd;}.b,.c,.d{fill:none;}.b,.d{stroke-linecap:round;}</style></defs><g transform="translate(-214 285.156)"><g transform="translate(214.6 -284.656)"><g transform="translate(0 0)"><g transform="translate(0 0)"><path class="a" d="M2.017,70.534a7.535,7.535,0,0,0-.533,7.941A7.867,7.867,0,0,0,8.437,82.6H52.764a7.856,7.856,0,0,0,6.949-4.128,7.534,7.534,0,0,0-.529-7.941L40.394,40.405V9.716H20.808V40.405L2.017,70.534Z" transform="translate(-0.6 -0.344)"/><path class="a" d="M45.795,5.031c0,2.592-1.509,4.688-3.377,4.688H18.783c-1.867,0-3.377-2.1-3.377-4.687S16.916.344,18.783.344H42.418c1.867,0,3.377,2.1,3.377,4.688Z" transform="translate(-0.6 -0.344)"/><line class="b" x1="9.375" transform="translate(31.015 18.75)"/><line class="b" x1="9.375" transform="translate(31.015 31.338)"/><line class="b" x1="14.063" transform="translate(26.699 23.503)"/><line class="c" x2="35.076" transform="translate(12.463 54.841)"/><path class="d" d="M55.25,89.406a2.344,2.344,0,1,1-2.344-2.344,2.345,2.345,0,0,1,2.344,2.344Z" transform="translate(-9.384 -16.52)"/><path class="d" d="M43.531,76.516a1.172,1.172,0,1,1-1.172-1.172,1.172,1.172,0,0,1,1.172,1.172Z" transform="translate(-7.495 -12.969)"/><path class="d" d="M31.813,82.375a7.031,7.031,0,1,1-7.031-7.031,7.034,7.034,0,0,1,7.031,7.031Z" transform="translate(-4.105 -16.52)"/></g></g></g></g></svg>