<svg xmlns="http://www.w3.org/2000/svg" width="61" height="61" viewBox="0 0 61 61"><defs><style>.a{fill:#fab000;fill-rule:evenodd;}.a,.b{stroke:#000;stroke-linecap:round;stroke-linejoin:round;}.b{fill:none;}</style></defs><g transform="translate(-0.063 -0.063)"><g transform="translate(0.563 0.563)"><path class="a" d="M45.729,48.063H15.4a2.34,2.34,0,0,1-2.333-2.333V15.4A2.34,2.34,0,0,1,15.4,13.063H45.729A2.339,2.339,0,0,1,48.063,15.4V45.729A2.339,2.339,0,0,1,45.729,48.063Z" transform="translate(-0.563 -0.563)"/><line class="b" y2="12.5" transform="translate(28.696 0)"/><line class="b" y2="12.5" transform="translate(18.261 0)"/><line class="b" y2="12.5" transform="translate(41.739 0)"/><line class="b" x2="12.5" transform="translate(0 31.304)"/><line class="b" x2="12.5" transform="translate(0 41.739)"/><line class="b" x2="12.5" transform="translate(0 18.261)"/><line class="b" y1="12.5" transform="translate(31.304 47.5)"/><line class="b" y1="12.5" transform="translate(41.739 47.5)"/><line class="b" y1="12.5" transform="translate(18.261 47.5)"/><line class="b" x1="12.5" transform="translate(47.5 28.696)"/><line class="b" x1="12.5" transform="translate(47.5 18.261)"/><line class="b" x1="12.5" transform="translate(47.5 41.739)"/><path class="a" d="M53.688,47.438a6.266,6.266,0,0,1-6.25,6.25H25.563a6.268,6.268,0,0,1-6.25-6.25V25.563a6.268,6.268,0,0,1,6.25-6.25H47.438a6.266,6.266,0,0,1,6.25,6.25V47.438Z" transform="translate(-6.5 -6.5)"/><line class="b" x2="12.5" transform="translate(22.5 23.478)"/><line class="b" x2="6.25" transform="translate(23.036 28.696)"/><line class="b" x2="6.25" transform="translate(30.714 36.522)"/></g></g></svg>